<svg xmlns="http://www.w3.org/2000/svg" width="16" height="22" viewBox="0 0 16 22">
    <g fill="none" fill-rule="evenodd">
        <g fill="#6969F2" fill-rule="nonzero">
            <g>
                <g>
                    <g>
                        <path d="M13.905 15.735c-.381-.351-.818-.702-1.301-1.046-.564-1.853-2.077-3.296-3.972-3.772V8.349h2.335V5.641H8.632V4.612h3.713V1.904H8.632V0H5.917v10.917c-.327.082-.643.193-.945.33-.539-.123-1.055-.214-1.54-.267-2.262-.247-3.05.386-3.312.96s-.223 1.582 1.45 3.121c.075.07.154.14.234.21-.063.332-.096.674-.096 1.023 0 3.061 2.497 5.551 5.567 5.551 1.756 0 3.324-.815 4.345-2.084.143.02.284.04.421.055.346.038.657.055.937.055 1.554 0 2.153-.528 2.375-1.015.263-.574.224-1.582-1.448-3.121zm-6.63-2.284c1.572 0 2.851 1.276 2.851 2.844 0 .802-.335 1.528-.874 2.045-.789-.254-1.608-.57-2.428-.943-.855-.388-1.663-.814-2.396-1.26.082-1.495 1.327-2.686 2.847-2.686zM.879 12.285c.15-.328.726-.525 1.628-.525.404 0 .873.04 1.399.124-.834.633-1.483 1.494-1.854 2.49-.919-.868-1.367-1.663-1.173-2.09zm6.396 6.853c-1.261 0-2.333-.821-2.708-1.955.602.341 1.244.668 1.912.97.634.289 1.268.545 1.891.766-.337.14-.707.219-1.095.219zm7.32-.627c-.2.438-1.14.621-2.455.479.447-.799.702-1.718.702-2.696 0-.131-.005-.261-.013-.39.18.147.35.294.51.441.975.898 1.456 1.728 1.255 2.166z" transform="translate(-579 -475) translate(540 163) translate(18 296) translate(21 16)"/>
                    </g>
                </g>
            </g>
        </g>
    </g>
</svg>
